<svg xmlns="http://www.w3.org/2000/svg" xmlns:xlink="http://www.w3.org/1999/xlink" version="1.1" x="0px" y="0px" viewBox="0 0 40 50" enable-background="new 0 0 40 40" xml:space="preserve"><path d="M32.6,17.8c-1.1,0-2.3-0.5-3.1-1.4c-1.1-1.1-2.9-1.1-3.9,0c-0.8,0.9-1.9,1.4-3.1,1.4c-1.1,0-2.3-0.5-3.1-1.4  c-1.1-1.1-2.9-1.1-3.9,0c-0.8,0.9-1.9,1.4-3.1,1.4s-2.3-0.5-3.1-1.4c-1.1-1.1-2.9-1.1-3.9,0c-0.3,0.3-0.8,0.3-1.1,0.1  C4,16.2,4,15.8,4.2,15.5c0.8-0.9,1.9-1.4,3.1-1.4c1.1,0,2.3,0.5,3.1,1.4c1.1,1.1,2.9,1.1,3.9,0c0.8-0.9,1.9-1.4,3.1-1.4  c1.1,0,2.3,0.5,3.1,1.4c1.1,1.1,2.9,1.1,3.9,0c0.8-0.9,1.9-1.4,3.1-1.4s2.3,0.5,3.1,1.4c1.1,1.1,2.9,1.1,3.9,0  c0.3-0.3,0.8-0.3,1.1-0.1c0.3,0.3,0.3,0.8,0.1,1.1C34.8,17.4,33.7,17.8,32.6,17.8z"/><path d="M32.6,23.1c-1.1,0-2.3-0.5-3.1-1.4c-1.1-1.1-2.9-1.1-3.9,0c-0.8,0.9-1.9,1.4-3.1,1.4c-1.1,0-2.3-0.5-3.1-1.4  c-1.1-1.1-2.9-1.1-3.9,0c-0.8,0.8-1.9,1.4-3,1.4s-2.3-0.5-3.1-1.4c-1.1-1.1-2.9-1.1-3.9,0C5.2,22,4.7,22,4.4,21.7  c-0.3-0.3-0.3-0.8-0.1-1.1c0.8-0.9,1.9-1.4,3.1-1.4c1.1,0,2.3,0.5,3.1,1.4c1.1,1.1,2.9,1.1,3.9,0c0.8-0.9,1.9-1.4,3.1-1.4  c1.1,0,2.3,0.5,3.1,1.4c1.1,1.1,2.9,1.1,3.9,0c0.8-0.9,1.9-1.4,3.1-1.4s2.3,0.5,3.1,1.4c1.1,1.1,2.9,1.1,3.9,0  c0.3-0.3,0.8-0.3,1.1-0.1c0.3,0.3,0.3,0.8,0.1,1.1C34.8,22.6,33.7,23.1,32.6,23.1z"/><path d="M32.6,28.3c-1.1,0-2.3-0.5-3.1-1.4c-1.1-1.1-2.9-1.1-3.9,0c-0.8,0.9-1.9,1.4-3.1,1.4c-1.1,0-2.3-0.5-3.1-1.4  c-1.1-1.1-2.9-1.1-3.9,0c-0.8,0.9-1.9,1.4-3,1.4s-2.3-0.5-3.1-1.4c-1.1-1.1-2.9-1.1-3.9,0c-0.3,0.3-0.8,0.3-1.1,0.1  c-0.3-0.3-0.3-0.8-0.1-1.1c0.8-0.9,1.9-1.4,3.1-1.4c1.1,0,2.3,0.5,3.1,1.4c1.1,1.1,2.9,1.1,3.9,0c0.8-0.9,1.9-1.4,3.1-1.4  c1.1,0,2.3,0.5,3.1,1.4c1.1,1.1,2.9,1.1,3.9,0c0.8-0.9,1.9-1.4,3.1-1.4s2.3,0.5,3.1,1.4c1.1,1.1,2.9,1.1,3.9,0  c0.3-0.3,0.8-0.3,1.1-0.1c0.3,0.3,0.3,0.8,0.1,1.1C34.8,27.8,33.7,28.3,32.6,28.3z"/><text x="0" y="55" fill="#000000" font-size="5px" font-weight="bold" font-family="'Helvetica Neue', Helvetica, Arial-Unicode, Arial, Sans-serif">Created by marshmallow_cat</text><text x="0" y="60" fill="#000000" font-size="5px" font-weight="bold" font-family="'Helvetica Neue', Helvetica, Arial-Unicode, Arial, Sans-serif">from the Noun Project</text></svg>